<svg xmlns="http://www.w3.org/2000/svg" viewBox="0 0 800 400">
  <defs>
    <!-- Fur texture pattern -->
    <pattern id="furPattern" patternUnits="userSpaceOnUse" width="60" height="60">
      <path d="M0 0h60v60H0z" fill="#B87333"/>
      <path d="M0 0l30 60L60 0" fill="#8B4513" opacity="0.3"/>
    </pattern>
    
    <!-- Animations -->
    <animate id="bodyBob" attributeName="transform" attributeType="XML"
             type="translate" values="0 0; 0 -10; 0 0"
             dur="1s" repeatCount="indefinite"/>
             
    <!-- Glowing effect for destination plate -->
    <filter id="glow">
      <feGaussianBlur stdDeviation="2" result="coloredBlur"/>
      <feMerge>
        <feMergeNode in="coloredBlur"/>
        <feMergeNode in="SourceGraphic"/>
      </feMerge>
    </filter>
  </defs>

  <!-- Main body -->
  <g transform="translate(0,0)">
    <path d="M 100 200 
             C 150 150, 650 150, 700 200
             C 750 250, 750 300, 700 350
             C 650 400, 150 400, 100 350
             C 50 300, 50 250, 100 200" 
          fill="url(#furPattern)" stroke="#8B4513" stroke-width="4">
      <animateTransform attributeName="transform"
                      type="translate"
                      values="0 0; 0 -10; 0 0"
                      dur="1s"
                      repeatCount="indefinite"/>
    </path>
    
    <!-- Stripes -->
    <g stroke="#654321" stroke-width="15" opacity="0.5">
      <path d="M200 250 L200 300"/>
      <path d="M300 250 L300 300"/>
      <path d="M400 250 L400 300"/>
      <path d="M500 250 L500 300"/>
      <path d="M600 250 L600 300"/>
    </g>
  </g>

  <!-- Windows -->
  <g>
    <rect x="150" y="180" width="500" height="80" fill="#333"/>
    <g fill="#FFFACD" stroke="#333" stroke-width="2">
      <rect x="170" y="190" width="40" height="60" rx="10"/>
      <rect x="230" y="190" width="40" height="60" rx="10"/>
      <rect x="290" y="190" width="40" height="60" rx="10"/>
      <rect x="350" y="190" width="40" height="60" rx="10"/>
      <rect x="410" y="190" width="40" height="60" rx="10"/>
      <rect x="470" y="190" width="40" height="60" rx="10"/>
      <rect x="530" y="190" width="40" height="60" rx="10"/>
      <rect x="590" y="190" width="40" height="60" rx="10"/>
    </g>
  </g>

  <!-- Face -->
  <g transform="translate(80,220)">
    <!-- Eyes -->
    <ellipse cx="30" cy="30" rx="25" ry="35" fill="#FFD700"/>
    <ellipse cx="30" cy="30" rx="4" ry="15" fill="black">
      <animate attributeName="ry"
               values="15;12;15"
               dur="3s"
               repeatCount="indefinite"/>
    </ellipse>
    
    <!-- Grin -->
    <path d="M0 60 Q30 90 60 60" fill="none" stroke="black" stroke-width="3"/>
    
    <!-- Teeth -->
    <path d="M15 65 L25 75 L35 65 L45 75 L55 65" fill="none" stroke="white" stroke-width="3"/>
    
    <!-- Whiskers -->
    <g stroke="black" stroke-width="2">
      <line x1="10" y1="50" x2="-20" y2="40"/>
      <line x1="10" y1="60" x2="-20" y2="60"/>
      <line x1="10" y1="70" x2="-20" y2="80"/>
    </g>
  </g>

  <!-- Legs (with animation) -->
  <g>
    <!-- Front legs -->
    <g id="legs">
      <g transform="translate(150,350)">
        <ellipse cx="0" cy="0" rx="20" ry="15" fill="#B87333" stroke="#8B4513">
          <animateTransform attributeName="transform"
                          type="rotate"
                          values="0 0 0; -15 0 0; 0 0 0; 15 0 0; 0 0 0"
                          dur="0.5s"
                          repeatCount="indefinite"/>
        </ellipse>
      </g>
      <g transform="translate(250,350)">
        <ellipse cx="0" cy="0" rx="20" ry="15" fill="#B87333" stroke="#8B4513">
          <animateTransform attributeName="transform"
                          type="rotate"
                          values="15 0 0; 0 0 0; -15 0 0; 0 0 0"
                          dur="0.5s"
                          repeatCount="indefinite"/>
        </ellipse>
      </g>
      <g transform="translate(350,350)">
        <ellipse cx="0" cy="0" rx="20" ry="15" fill="#B87333" stroke="#8B4513">
          <animateTransform attributeName="transform"
                          type="rotate"
                          values="0 0 0; 15 0 0; 0 0 0; -15 0 0"
                          dur="0.5s"
                          repeatCount="indefinite"/>
        </ellipse>
      </g>
    </g>
    <!-- Mirror legs for other side -->
    <use href="#legs" transform="translate(300,0)"/>
  </g>

  <!-- Tail -->
  <path d="M700 250 Q750 250 780 200 Q800 150 770 120" 
        fill="none" stroke="#B87333" stroke-width="30">
    <animate attributeName="d"
             values="M700 250 Q750 250 780 200 Q800 150 770 120;
                     M700 250 Q750 270 780 220 Q800 170 770 140;
                     M700 250 Q750 250 780 200 Q800 150 770 120"
             dur="2s"
             repeatCount="indefinite"/>
  </path>

  <!-- Ears -->
  <g transform="translate(80,180)">
    <path d="M0 0 L-20 -40 L20 -20 Z" fill="#B87333" stroke="#8B4513"/>
    <path d="M40 0 L20 -40 L60 -20 Z" fill="#B87333" stroke="#8B4513"/>
    <!-- Inner ear details -->
    <path d="M-10 -30 L10 -15" fill="none" stroke="#654321" stroke-width="2"/>
    <path d="M30 -30 L50 -15" fill="none" stroke="#654321" stroke-width="2"/>
  </g>

  <!-- Destination plate -->
  <g transform="translate(300,150)">
    <rect x="0" y="0" width="200" height="40" rx="10" fill="#333" filter="url(#glow)"/>
    <text x="70" y="30" font-family="Arial" font-size="30" fill="#FFD700" filter="url(#glow)">めい
      <animate attributeName="opacity"
               values="1;0.7;1"
               dur="2s"
               repeatCount="indefinite"/>
    </text>
  </g>
</svg>