<svg viewBox="0 0 600 800" xmlns="http://www.w3.org/2000/svg">
  <!-- Background -->
  <rect width="600" height="800" fill="#e8f4ea"/>
  
  <!-- Title -->
  <text x="300" y="60" text-anchor="middle" font-family="Arial" font-size="32" fill="#2c5530" font-weight="bold">
    My Neighbor Totoro
    <animate attributeName="opacity" values="0.8;1;0.8" dur="3s" repeatCount="indefinite"/>
  </text>
  
  <!-- Totoro Body -->
  <g transform="translate(300, 250)">
    <!-- Body bounce animation -->
    <animateTransform attributeName="transform"
                      type="translate"
                      values="300,250;300,245;300,250"
                      dur="4s"
                      repeatCount="indefinite"/>
    
    <!-- Main body -->
    <ellipse cx="0" cy="0" rx="100" ry="80" fill="#888888"/>
    <ellipse cx="0" cy="10" rx="80" ry="70" fill="#9a9a9a"/>
    
    <!-- Belly pattern -->
    <path d="M-60,10 Q0,30 60,10 Q0,-20 -60,10" fill="#ffffff"/>
    
    <!-- Enhanced Thicker & Longer Ears -->
    <path d="M-45,-50 C-55,-70 -85,-110 -60,-120 C-35,-110 -25,-70 -20,-50 Z" fill="#888888"/>
    <path d="M45,-50 C55,-70 85,-110 60,-120 C35,-110 25,-70 20,-50 Z" fill="#888888"/>
    
    <!-- Animated Leaf between ears -->
    <g transform="translate(0,-85)">
      <animateTransform attributeName="transform"
                        type="rotate"
                        values="-5 0 -85;5 0 -85;-5 0 -85"
                        dur="3s"
                        repeatCount="indefinite"/>
      <path d="M-15,0 Q0,-20 15,0 Q0,10 -15,0" fill="#4a7c59">
        <animate attributeName="opacity" values="0.7;1;0.7" dur="3s" repeatCount="indefinite"/>
      </path>
      <line x1="0" y1="0" x2="0" y2="10" stroke="#4a7c59" stroke-width="2"/>
    </g>
    
    <!-- Eyes -->
    <circle cx="-30" cy="-30" r="12" fill="#000000"/>
    <circle cx="30" cy="-30" r="12" fill="#000000"/>
    <circle cx="-30" cy="-32" r="3" fill="#ffffff"/>
    <circle cx="30" cy="-32" r="3" fill="#ffffff"/>
    
    <!-- Nose -->
    <ellipse cx="0" cy="-15" rx="8" ry="5" fill="#000000"/>
    
    <!-- Gentle Closed Smile -->
    <path d="M-40,0 Q0,20 40,0" fill="none" stroke="#000000" stroke-width="3" stroke-linecap="round"/>
    
    <!-- Whiskers -->
    <g stroke="#000000" stroke-width="2">
      <line x1="-40" y1="-10" x2="-80" y2="-20"/>
      <line x1="-40" y1="-5" x2="-80" y2="-5"/>
      <line x1="-40" y1="0" x2="-80" y2="10"/>
      <line x1="40" y1="-10" x2="80" y2="-20"/>
      <line x1="40" y1="-5" x2="80" y2="-5"/>
      <line x1="40" y1="0" x2="80" y2="10"/>
    </g>
  </g>
  
  <!-- Rotating Leaf -->
  <g transform="translate(120,180)">
    <animateTransform attributeName="transform"
                      type="rotate"
                      values="0 120 180;360 120 180"
                      dur="10s"
                      repeatCount="indefinite"/>
    <path d="M0,0 Q20,-20 40,0 Q20,20 0,0" fill="#4a7c59">
      <animate attributeName="opacity" values="0.7;1;0.7" dur="3s" repeatCount="indefinite"/>
    </path>
  </g>
  
  <!-- Facts Sections -->
  <g>
    <!-- Fact 1 -->
    <g transform="translate(50,450)">
      <animate attributeName="opacity" values="0;1" dur="1s" fill="freeze"/>
      <rect x="0" y="0" width="200" height="80" rx="10" fill="#4a7c59" opacity="0.9"/>
      <text x="100" y="30" text-anchor="middle" font-family="Arial" font-size="16" fill="white">Released in</text>
      <text x="100" y="60" text-anchor="middle" font-family="Arial" font-size="24" fill="white" font-weight="bold">1988</text>
    </g>
    
    <!-- Fact 2 -->
    <g transform="translate(350,450)">
      <animate attributeName="opacity" values="0;1" dur="1s" begin="0.5s" fill="freeze"/>
      <rect x="0" y="0" width="200" height="80" rx="10" fill="#4a7c59" opacity="0.9"/>
      <text x="100" y="30" text-anchor="middle" font-family="Arial" font-size="16" fill="white">Directed by</text>
      <text x="100" y="60" text-anchor="middle" font-family="Arial" font-size="24" fill="white" font-weight="bold">Hayao Miyazaki</text>
    </g>
    
    <!-- Fact 3 -->
    <!-- <g transform="translate(50,550)">
      <animate attributeName="opacity" values="0;1" dur="1s" begin="1s" fill="freeze"/>
      <rect x="0" y="0" width="200" height="80" rx="10" fill="#4a7c59" opacity="0.9"/>
      <text x="100" y="30" text-anchor="middle" font-family="Arial" font-size="16" fill="white">Studio</text>
      <text x="100" y="60" text-anchor="middle" font-family="Arial" font-size="24" fill="white" font-weight="bold">Studio Ghibli</text>
    </g> -->
    
    <!-- Fact 4 -->
    <g transform="translate(350,550)">
      <animate attributeName="opacity" values="0;1" dur="1s" begin="1.5s" fill="freeze"/>
      <rect x="0" y="0" width="200" height="80" rx="10" fill="#4a7c59" opacity="0.9"/>
      <text x="100" y="30" text-anchor="middle" font-family="Arial" font-size="16" fill="white">Setting</text>
      <text x="100" y="60" text-anchor="middle" font-family="Arial" font-size="24" fill="white" font-weight="bold">1950s Japan</text>
    </g>

     <!-- Fact 5 -->
    <g transform="translate(50,550)">
      <animate attributeName="opacity" values="0;1" dur="1s" begin="1s" fill="freeze"/>
      <rect x="0" y="0" width="250" height="80" rx="10" fill="#4a7c59" opacity="0.9"/>
      <text x="125" y="30" text-anchor="middle" font-family="Arial" font-size="16" fill="white">Ghibli Fan</text>
      <text x="125" y="60" text-anchor="middle" font-family="Arial" font-size="24" fill="white" font-weight="bold">Find me @sijan67</text>
    </g>
  </g>
  
  <!-- Animated Soot Sprites -->
  <g>
    <circle cx="50" cy="700" r="10" fill="#000000">
      <animate attributeName="cy" values="700;680;700" dur="2s" repeatCount="indefinite"/>
      <animate attributeName="opacity" values="1;0.5;1" dur="2s" repeatCount="indefinite"/>
    </circle>
    <circle cx="90" cy="720" r="8" fill="#000000">
      <animate attributeName="cy" values="720;700;720" dur="2.5s" repeatCount="indefinite"/>
      <animate attributeName="opacity" values="1;0.5;1" dur="2.5s" repeatCount="indefinite"/>
    </circle>
    <circle cx="130" cy="710" r="12" fill="#000000">
      <animate attributeName="cy" values="710;690;710" dur="3s" repeatCount="indefinite"/>
      <animate attributeName="opacity" values="1;0.5;1" dur="3s" repeatCount="indefinite"/>
    </circle>
  </g>
  
  <!-- Mini Umbrella -->
  <g transform="translate(500,700)">
    <animateTransform attributeName="transform"
                      type="rotate"
                      values="-10 500 700;10 500 700;-10 500 700"
                      dur="3s"
                      repeatCount="indefinite"/>
    <path d="M0,0 Q-30,-30 -60,0 Q-30,-40 0,0" fill="#ff0000"/>
    <line x1="0" y1="0" x2="0" y2="40" stroke="#000000" stroke-width="2"/>
  </g>
</svg>
